<?xml version="1.0" encoding="UTF-8"?>
<svg width="20px" height="20px" viewBox="0 0 20 20" version="1.1" xmlns="http://www.w3.org/2000/svg" xmlns:xlink="http://www.w3.org/1999/xlink">
    <title>98CA9938-6E21-416F-96C2-9493E97C59FE</title>
    <defs>
        <path d="M8.25,0 C12.8063492,0 16.5,3.69365081 16.5,8.25 C16.5,12.8063492 12.8063492,16.5 8.25,16.5 C3.69365081,16.5 0,12.8063492 0,8.25 C0,3.69365081 3.69365081,0 8.25,0 Z M8.25,1.5 C4.52207794,1.5 1.5,4.52207794 1.5,8.25 C1.5,11.9779221 4.52207794,15 8.25,15 C11.9779221,15 15,11.9779221 15,8.25 C15,4.52207794 11.9779221,1.5 8.25,1.5 Z M5.36520916,4.24999919 L5.44008184,4.31611458 L8.25,7.126 L11.0599182,4.31611458 C11.3702931,4.00573959 11.8735104,4.00573959 12.1838854,4.31611458 C12.4703854,4.60261457 12.4924239,5.05342988 12.2500008,5.36520916 L12.1838854,5.44008184 L9.374,8.25 L12.1838854,11.0599182 C12.4942604,11.3702931 12.4942604,11.8735104 12.1838854,12.1838854 C11.8973854,12.4703854 11.4465701,12.4924239 11.1347908,12.2500008 L11.0599182,12.1838854 L8.25,9.374 L5.44008184,12.1838854 C5.12970685,12.4942604 4.62648957,12.4942604 4.31611458,12.1838854 C4.02961459,11.8973854 4.00757612,11.4465701 4.24999919,11.1347908 L4.31611458,11.0599182 L7.126,8.25 L4.31611458,5.44008184 C4.00573959,5.12970685 4.00573959,4.62648957 4.31611458,4.31611458 C4.60261457,4.02961459 5.05342988,4.00757612 5.36520916,4.24999919 Z" id="path-1"></path>
    </defs>
    <g id="1首頁" stroke="none" stroke-width="1" fill="none" fill-rule="evenodd">
        <g id="1.1.2_首頁_亞洲版_已登入" transform="translate(-1408.000000, -120.000000)">
            <g id="Sidebar/bettingList/content" transform="translate(1052.000000, 120.000000)">
                <g id="Group" transform="translate(357.750000, 1.750000)">
                    <mask id="mask-2" fill="white">
                        <use xlink:href="#path-1"></use>
                    </mask>
                    <use id="Combined-Shape" fill="#999999" xlink:href="#path-1"></use>
                </g>
            </g>
        </g>
    </g>
</svg>